<svg xmlns="http://www.w3.org/2000/svg" version="1.1" xmlns:xlink="http://www.w3.org/1999/xlink" xmlns:svgjs="http://svgjs.dev/svgjs" width="1500" height="446" viewBox="0 0 1500 446"><g transform="matrix(1,0,0,1,-0.9090903184900299,0.3170766472357798)"><svg viewBox="0 0 396 118" data-background-color="#ffffff" preserveAspectRatio="xMidYMid meet" height="446" width="1500" xmlns="http://www.w3.org/2000/svg" xmlns:xlink="http://www.w3.org/1999/xlink"><g id="tight-bounds" transform="matrix(1,0,0,1,0.23999984408135333,-0.08389023402202156)"><svg viewBox="0 0 395.52 118.16778046804404" height="118.16778046804404" width="395.52"><g><svg viewBox="0 0 481.0759356902484 143.72895316824471" height="118.16778046804404" width="395.52"><g><rect width="6.96861576612472" height="77.6599988892935" x="60.34487027458253" y="33.034477139475605" fill="#111111" opacity="1" stroke-width="0" stroke="transparent" fill-opacity="1" class="rect-yte-0" data-fill-palette-color="primary" rx="1%" id="yte-0" data-palette-color="#111111"></rect></g><g transform="matrix(1,0,0,1,85.55593569024839,33.22766121631464)"><svg viewBox="0 0 395.52 77.27363073561544" height="77.27363073561544" width="395.52"><g id="textblocktransform"><svg viewBox="0 0 395.52 77.27363073561544" height="77.27363073561544" width="395.52" id="textblock"><g><svg viewBox="0 0 395.52 77.27363073561544" height="77.27363073561544" width="395.52"><g transform="matrix(1,0,0,1,0,0)"><svg width="395.52" viewBox="1.71 -38.38 199.54752360182002 38.99" height="77.27363073561544" data-palette-color="#111111"><path d="M7.67-1.78L7.67-1.78Q6.96-2.88 6.15-4.85 5.35-6.81 4.57-9.22 3.78-11.62 3.14-14.03 2.49-16.43 2.1-18.44 1.71-20.46 1.71-21.61L1.71-21.61Q1.71-22.09 1.98-22.41L1.98-22.41Q3.1-23.8 5.18-25.32L5.18-25.32Q5.54-25.56 5.83-25.56L5.83-25.56Q6.15-25.56 6.49-25.32L6.49-25.32Q7.62-24.51 8.39-23.8 9.16-23.1 9.69-22.41L9.69-22.41Q9.96-22.09 9.96-21.51L9.96-21.51 9.96-21.63Q9.96-20.12 10.14-18.14 10.33-16.16 10.67-14.06 11.01-11.96 11.49-10.06 11.96-8.15 12.55-6.79L12.55-6.79 12.7-6.79Q13.33-8.15 14.04-10.35 14.75-12.55 15.39-15 16.04-17.46 16.55-19.63 17.07-21.8 17.29-23.07L17.29-23.07Q17.46-24.02 18.05-24.34 18.65-24.66 19.73-24.66L19.73-24.66 22.56-24.66Q23.78-24.66 24.3-24.29 24.83-23.93 24.95-23.07L24.95-23.07Q25.15-21.75 25.66-19.52 26.17-17.29 26.82-14.79 27.47-12.3 28.13-10.13 28.78-7.96 29.25-6.79L29.25-6.79 29.42-6.79Q30.15-8.4 30.81-10.95 31.47-13.5 31.88-16.33 32.3-19.17 32.3-21.61L32.3-21.61 32.3-21.51Q32.3-22.09 32.54-22.41L32.54-22.41Q33.11-23.1 33.86-23.8 34.62-24.51 35.69-25.32L35.69-25.32Q36.04-25.56 36.33-25.56L36.33-25.56Q36.67-25.56 36.96-25.32L36.96-25.32Q38.06-24.51 38.82-23.8 39.58-23.1 40.11-22.41L40.11-22.41Q40.36-22.09 40.36-21.56L40.36-21.56Q40.33-20.36 39.89-18.37 39.45-16.38 38.73-14.01 38.01-11.65 37.15-9.28 36.28-6.91 35.39-4.93 34.5-2.95 33.74-1.78L33.74-1.78Q33.25-1.03 32.89-0.63 32.52-0.24 31.99-0.12 31.47 0 30.44 0L30.44 0 27.69 0Q26.54 0 25.89-0.33 25.24-0.66 24.68-1.78L24.68-1.78Q24.34-2.44 23.85-3.99 23.36-5.54 22.85-7.39 22.34-9.23 21.95-10.84 21.56-12.45 21.44-13.21L21.44-13.21Q21.31-13.94 21.18-14.99 21.04-16.04 21-16.65L21-16.65 20.87-16.65Q20.85-16.04 20.72-15 20.58-13.96 20.43-13.18L20.43-13.18Q20.29-12.5 19.9-11.07 19.51-9.64 18.96-7.92 18.41-6.2 17.81-4.57 17.21-2.93 16.67-1.78L16.67-1.78Q16.14-0.66 15.44-0.33 14.75 0 13.23 0L13.23 0 10.4 0Q9.2 0 8.78-0.37 8.35-0.73 7.67-1.78ZM1.71-21.51L1.71-21.66 1.71-21.61Q1.71-21.56 1.71-21.51L1.71-21.51ZM40.36-21.61L40.36-21.61 40.36-21.51 40.36-21.56Q40.36-21.58 40.36-21.61ZM44.24-33.2L44.24-33.2Q44.24-33.52 44.43-33.76 44.63-34.01 44.94-34.4L44.94-34.4Q45.63-35.18 46.53-36.05 47.43-36.91 48.36-37.72L48.36-37.72Q48.95-38.18 49.24-38.18L49.24-38.18Q49.53-38.18 50.14-37.72L50.14-37.72Q52.12-36.01 53.51-34.4L53.51-34.4Q53.83-34.03 54.04-33.78 54.25-33.52 54.25-33.2L54.25-33.2Q54.25-32.89 54.04-32.64 53.83-32.4 53.49-31.98L53.49-31.98Q52.83-31.23 51.95-30.36 51.07-29.49 50.14-28.71L50.14-28.71Q49.8-28.42 49.61-28.33 49.41-28.25 49.24-28.25L49.24-28.25Q49.07-28.25 48.89-28.33 48.7-28.42 48.31-28.71L48.31-28.71Q47.34-29.49 46.48-30.36 45.63-31.23 44.94-32.03L44.94-32.03Q44.63-32.42 44.43-32.65 44.24-32.89 44.24-33.2ZM53.07-23.71L53.07-1.29Q53.07-0.56 52.77-0.28 52.46 0 51.73 0L51.73 0 46.7 0Q45.97 0 45.66-0.28 45.36-0.56 45.36-1.29L45.36-1.29 45.36-23.71Q45.36-24.44 45.66-24.72 45.97-25 46.7-25L46.7-25 51.73-25Q52.46-25 52.77-24.72 53.07-24.44 53.07-23.71L53.07-23.71ZM77.53 0L60.44 0Q59.22 0 58.37-0.67 57.51-1.34 57.45-2.5 57.39-3.66 58.54-5.13L58.54-5.13 69.6-19.31 60.25-19.31Q59.81-19.31 59.57-19.48L59.57-19.48Q58.56-20.29 57.47-21.7L57.47-21.7Q57.27-22.02 57.27-22.17L57.27-22.17Q57.27-22.34 57.47-22.61L57.47-22.61Q58.56-24.02 59.57-24.83L59.57-24.83Q59.86-25 60.25-25L60.25-25 76.14-25Q78.58-25 79.24-23.43 79.9-21.85 78.39-19.9L78.39-19.9 67.5-5.69 77.53-5.69Q77.97-5.69 78.22-5.52L78.22-5.52Q79.22-4.71 80.32-3.3L80.32-3.3Q80.51-2.98 80.51-2.83L80.51-2.83Q80.51-2.66 80.32-2.39L80.32-2.39Q79.22-0.98 78.22-0.17L78.22-0.17Q77.92 0 77.53 0L77.53 0ZM89.03-1.78L89.03-1.78Q88.32-2.88 87.52-4.85 86.71-6.81 85.93-9.22 85.15-11.62 84.5-14.03 83.85-16.43 83.46-18.44 83.07-20.46 83.07-21.61L83.07-21.61Q83.07-22.09 83.34-22.41L83.34-22.41Q84.47-23.8 86.54-25.32L86.54-25.32Q86.91-25.56 87.2-25.56L87.2-25.56Q87.52-25.56 87.86-25.32L87.86-25.32Q88.98-24.51 89.75-23.8 90.52-23.1 91.06-22.41L91.06-22.41Q91.33-22.09 91.33-21.51L91.33-21.51 91.33-21.63Q91.33-20.12 91.51-18.14 91.69-16.16 92.03-14.06 92.38-11.96 92.85-10.06 93.33-8.15 93.91-6.79L93.91-6.79 94.06-6.79Q94.69-8.15 95.4-10.35 96.11-12.55 96.76-15 97.4-17.46 97.92-19.63 98.43-21.8 98.65-23.07L98.65-23.07Q98.82-24.02 99.42-24.34 100.02-24.66 101.09-24.66L101.09-24.66 103.92-24.66Q105.14-24.66 105.67-24.29 106.19-23.93 106.32-23.07L106.32-23.07Q106.51-21.75 107.02-19.52 107.54-17.29 108.18-14.79 108.83-12.3 109.49-10.13 110.15-7.96 110.61-6.79L110.61-6.79 110.78-6.79Q111.52-8.4 112.18-10.95 112.83-13.5 113.25-16.33 113.66-19.17 113.66-21.61L113.66-21.61 113.66-21.51Q113.66-22.09 113.91-22.41L113.91-22.41Q114.47-23.1 115.23-23.8 115.98-24.51 117.06-25.32L117.06-25.32Q117.4-25.56 117.69-25.56L117.69-25.56Q118.03-25.56 118.33-25.32L118.33-25.32Q119.43-24.51 120.18-23.8 120.94-23.1 121.48-22.41L121.48-22.41Q121.72-22.09 121.72-21.56L121.72-21.56Q121.7-20.36 121.26-18.37 120.82-16.38 120.1-14.01 119.38-11.65 118.51-9.28 117.64-6.91 116.75-4.93 115.86-2.95 115.1-1.78L115.1-1.78Q114.62-1.03 114.25-0.63 113.88-0.24 113.36-0.12 112.83 0 111.81 0L111.81 0 109.05 0Q107.9 0 107.26-0.33 106.61-0.66 106.05-1.78L106.05-1.78Q105.71-2.44 105.22-3.99 104.73-5.54 104.22-7.39 103.7-9.23 103.31-10.84 102.92-12.45 102.8-13.21L102.8-13.21Q102.68-13.94 102.54-14.99 102.41-16.04 102.36-16.65L102.36-16.65 102.24-16.65Q102.21-16.04 102.08-15 101.95-13.96 101.8-13.18L101.8-13.18Q101.65-12.5 101.26-11.07 100.87-9.64 100.32-7.92 99.77-6.2 99.17-4.57 98.58-2.93 98.04-1.78L98.04-1.78Q97.5-0.66 96.81-0.33 96.11 0 94.6 0L94.6 0 91.76 0Q90.57 0 90.14-0.37 89.71-0.73 89.03-1.78ZM83.07-21.51L83.07-21.66 83.07-21.61Q83.07-21.56 83.07-21.51L83.07-21.51ZM121.72-21.61L121.72-21.61 121.72-21.51 121.72-21.56Q121.72-21.58 121.72-21.61ZM138.71 0.61L138.71 0.61Q132.56 0.61 128.97-2.66 125.38-5.93 125.38-12.4L125.38-12.4Q125.38-19.04 129.1-22.33 132.83-25.61 139.05-25.61L139.05-25.61Q145.06-25.61 148.67-22.38 152.28-19.14 152.28-12.84L152.28-12.84Q152.28-6.27 148.67-2.83 145.06 0.61 138.71 0.61ZM138.95-5.3L138.95-5.3Q141.64-5.3 143.01-6.97 144.37-8.64 144.37-12.7L144.37-12.7Q144.37-16.55 143-18.13 141.62-19.7 138.91-19.7L138.91-19.7Q136.29-19.7 134.79-18.01 133.29-16.31 133.29-12.5L133.29-12.5Q133.29-8.52 134.72-6.91 136.15-5.3 138.95-5.3ZM165.25-22.17L165.25-20.36 165.34-20.36Q167.18-25.44 171.94-25.44L171.94-25.44Q172.55-25.44 172.94-25.38 173.33-25.32 173.47-25.27L173.47-25.27Q173.84-25.15 173.84-24.71L173.84-24.71 173.84-18.82Q173.84-18.07 172.96-18.41L172.96-18.41Q172.67-18.53 172.12-18.66 171.57-18.8 170.59-18.8L170.59-18.8Q168.08-18.8 166.66-16.96 165.25-15.11 165.25-11.94L165.25-11.94 165.25-1.29Q165.25-0.56 164.94-0.28 164.64 0 163.9 0L163.9 0 158.87 0Q158.14 0 157.84-0.28 157.53-0.56 157.53-1.29L157.53-1.29 157.53-21.75Q157.53-22.34 157.78-22.66L157.78-22.66Q158.29-23.34 159.01-24.05 159.73-24.76 160.78-25.56L160.78-25.56Q160.97-25.71 161.17-25.76 161.36-25.81 161.51-25.81L161.51-25.81Q161.85-25.81 162.19-25.56L162.19-25.56Q164.22-23.97 165.03-22.85L165.03-22.85Q165.25-22.56 165.25-22.17L165.25-22.17ZM185.19-10.21L185.19-1.29Q185.19-0.56 184.88-0.28 184.58 0 183.85 0L183.85 0 178.82 0Q178.09 0 177.78-0.28 177.48-0.56 177.48-1.29L177.48-1.29 177.48-34.33Q177.48-34.91 177.72-35.23L177.72-35.23Q178.74-36.57 180.72-38.13L180.72-38.13Q181.06-38.38 181.33-38.38L181.33-38.38Q181.65-38.38 181.94-38.13L181.94-38.13Q182.99-37.33 183.71-36.62 184.43-35.91 184.95-35.23L184.95-35.23Q185.19-34.91 185.19-34.33L185.19-34.33 185.19-15.16 185.48-15.16Q189.19-15.16 190.52-16.49 191.86-17.82 191.86-20.19L191.86-20.19 191.86-21.51Q191.86-22.09 192.1-22.41L192.1-22.41Q193.12-23.75 195.1-25.32L195.1-25.32Q195.44-25.56 195.71-25.56L195.71-25.56Q196.03-25.56 196.32-25.32L196.32-25.32Q197.37-24.51 198.09-23.8 198.81-23.1 199.33-22.41L199.33-22.41Q199.57-22.09 199.57-21.51L199.57-21.51 199.57-20.19Q199.57-18.8 199.02-17.11 198.47-15.43 197.03-14.14 195.59-12.84 192.93-12.62L192.93-12.62 192.93-12.5Q194.98-11.6 196.47-10.11 197.96-8.62 198.96-6.92 199.96-5.22 200.51-3.67 201.06-2.12 201.23-1.05L201.23-1.05Q201.4 0 200.52 0L200.52 0 194.1 0Q193.27 0 193.15-1L193.15-1Q192.98-2.15 192.4-3.7 191.83-5.25 190.87-6.74 189.9-8.23 188.55-9.22 187.19-10.21 185.48-10.21L185.48-10.21 185.19-10.21Z" opacity="1" transform="matrix(1,0,0,1,0,0)" fill="#111111" class="wordmark-text-0" data-fill-palette-color="primary" id="text-0"></path></svg></g></svg></g></svg></g></svg></g><g><svg viewBox="0 0 42.10242062504138 143.72895316824471" height="143.72895316824471" width="42.10242062504138"><g><svg xmlns="http://www.w3.org/2000/svg" xml:space="preserve" viewBox="37 0 29 99" x="0" y="0" height="143.72895316824471" width="42.10242062504138" class="icon-icon-0" data-fill-palette-color="accent" id="icon-0"><path d="M47 83l1 16h2l1-16zM47 82l-1-35h6l-1 35zM52 46h-6l-2-19 14-11-5-7-9 4v2h2l2 2-3 6-7-2-1-13 17-8 12 16-14 15z" fill="#0c6bbb" data-fill-palette-color="accent"></path></svg></g></svg></g></svg></g><defs></defs></svg><rect width="395.52" height="118.16778046804404" fill="none" stroke="none" visibility="hidden"></rect></g></svg></g></svg>